<?xml version="1.0" encoding="UTF-8"?>
<svg width="55%" height="55%" xmlns="http://www.w3.org/2000/svg" version="1.1" viewBox="0 0 300 300" style="background-color: #efeeec;"><g transform="rotate(180,50,50)"><path d="M 0 50 C 40 40 50 40 75 75" stroke="#0000FF" fill="none"></path><path d="M 75 75 C 70 70 40 40 50 0" stroke="#0000FF" fill="none"></path><path d="M 50 100 C 60 80 50 70 40 90" stroke="#0000FF" fill="none"></path><path d="M 40 90 C 50 70 70 40 100 50" stroke="#0000FF" fill="none"></path></g><g transform="rotate(360,50,150)"><path d="M 0 150 C 40 140 50 140 75 175" stroke="#0000FF" fill="none"></path><path d="M 75 175 C 70 170 40 140 50 100" stroke="#0000FF" fill="none"></path><path d="M 50 200 C 60 180 50 170 40 190" stroke="#0000FF" fill="none"></path><path d="M 40 190 C 50 170 70 140 100 150" stroke="#0000FF" fill="none"></path></g><g transform="rotate(180,50,250)"><path d="M 0 250 C 20 240 30 220 30 210" stroke="#0000FF" fill="none"></path><path d="M 30 210 C 30 220 40 230 50 220" stroke="#0000FF" fill="none"></path><path d="M 50 220 C 60 210 60 220 50 240" stroke="#0000FF" fill="none"></path><path d="M 50 240 C 40 260 60 290 50 300" stroke="#0000FF" fill="none"></path><path d="M 50 200 C 40 210 40 270 10 280" stroke="#0000FF" fill="none"></path><path d="M 10 280 C 30 250 40 290 60 260" stroke="#0000FF" fill="none"></path><path d="M 60 260 C 80 230 100 250 100 250" stroke="#0000FF" fill="none"></path></g><g transform="rotate(360,150,50)"><path d="M 100 50 C 140 40 150 40 175 75" stroke="#0000FF" fill="none"></path><path d="M 175 75 C 170 70 140 40 150 0" stroke="#0000FF" fill="none"></path><path d="M 150 100 C 160 80 150 70 140 90" stroke="#0000FF" fill="none"></path><path d="M 140 90 C 150 70 170 40 200 50" stroke="#0000FF" fill="none"></path></g><g transform="rotate(0,150,150)"><path d="M 100 150 C 140 130 150 170 170 130" stroke="#0000FF" fill="none"></path><path d="M 170 130 C 170 150 200 150 200 150" stroke="#0000FF" fill="none"></path><path d="M 150 100 C 120 140 130 180 160 160" stroke="#0000FF" fill="none"></path><path d="M 160 160 C 140 170 140 190 150 200" stroke="#0000FF" fill="none"></path></g><g transform="rotate(360,150,250)"><path d="M 100 250 C 140 240 150 240 175 275" stroke="#0000FF" fill="none"></path><path d="M 175 275 C 170 270 140 240 150 200" stroke="#0000FF" fill="none"></path><path d="M 150 300 C 160 280 150 270 140 290" stroke="#0000FF" fill="none"></path><path d="M 140 290 C 150 270 170 240 200 250" stroke="#0000FF" fill="none"></path></g><g transform="rotate(90,250,50)"><path d="M 200 50 C 220 40 230 20 230 10" stroke="#0000FF" fill="none"></path><path d="M 230 10 C 230 20 240 30 250 20" stroke="#0000FF" fill="none"></path><path d="M 250 20 C 260 10 260 20 250 40" stroke="#0000FF" fill="none"></path><path d="M 250 40 C 240 60 260 90 250 100" stroke="#0000FF" fill="none"></path><path d="M 250 0 C 240 10 240 70 210 80" stroke="#0000FF" fill="none"></path><path d="M 210 80 C 230 50 240 90 260 60" stroke="#0000FF" fill="none"></path><path d="M 260 60 C 280 30 300 50 300 50" stroke="#0000FF" fill="none"></path></g><g transform="rotate(180,250,150)"><path d="M 200 150 C 255 170 235 90 225 120" stroke="#0000FF" fill="none"></path><path d="M 225 120 C 225 120 215 160 245 140" stroke="#0000FF" fill="none"></path><path d="M 245 140 C 230 160 245 195 250 200" stroke="#0000FF" fill="none"></path><path d="M 250 100 C 260 150 240 130 250 110" stroke="#0000FF" fill="none"></path><path d="M 250 110 C 260 100 270 120 250 150" stroke="#0000FF" fill="none"></path><path d="M 250 150 C 280 130 290 140 300 150" stroke="#0000FF" fill="none"></path></g><g transform="rotate(90,250,250)"><path d="M 200 250 C 220 240 230 220 230 210" stroke="#0000FF" fill="none"></path><path d="M 230 210 C 230 220 240 230 250 220" stroke="#0000FF" fill="none"></path><path d="M 250 220 C 260 210 260 220 250 240" stroke="#0000FF" fill="none"></path><path d="M 250 240 C 240 260 260 290 250 300" stroke="#0000FF" fill="none"></path><path d="M 250 200 C 240 210 240 270 210 280" stroke="#0000FF" fill="none"></path><path d="M 210 280 C 230 250 240 290 260 260" stroke="#0000FF" fill="none"></path><path d="M 260 260 C 280 230 300 250 300 250" stroke="#0000FF" fill="none"></path></g><g transform="rotate(0,100,100)"><path d="M 50 100 C 90 80 100 120 120 80" stroke="#FF0000" fill="none"></path><path d="M 120 80 C 120 100 150 100 150 100" stroke="#FF0000" fill="none"></path><path d="M 100 50 C 70 90 80 130 110 110" stroke="#FF0000" fill="none"></path><path d="M 110 110 C 90 120 90 140 100 150" stroke="#FF0000" fill="none"></path></g><g transform="rotate(180,100,200)"><path d="M 50 200 C 90 190 100 190 125 225" stroke="#FF0000" fill="none"></path><path d="M 125 225 C 120 220 90 190 100 150" stroke="#FF0000" fill="none"></path><path d="M 100 250 C 110 230 100 220 90 240" stroke="#FF0000" fill="none"></path><path d="M 90 240 C 100 220 120 190 150 200" stroke="#FF0000" fill="none"></path></g><g transform="rotate(270,200,100)"><path d="M 150 100 C 170 90 180 70 180 60" stroke="#FF0000" fill="none"></path><path d="M 180 60 C 180 70 190 80 200 70" stroke="#FF0000" fill="none"></path><path d="M 200 70 C 210 60 210 70 200 90" stroke="#FF0000" fill="none"></path><path d="M 200 90 C 190 110 210 140 200 150" stroke="#FF0000" fill="none"></path><path d="M 200 50 C 190 60 190 120 160 130" stroke="#FF0000" fill="none"></path><path d="M 160 130 C 180 100 190 140 210 110" stroke="#FF0000" fill="none"></path><path d="M 210 110 C 230 80 250 100 250 100" stroke="#FF0000" fill="none"></path></g><g transform="rotate(0,200,200)"><path d="M 150 200 C 170 190 180 170 180 160" stroke="#FF0000" fill="none"></path><path d="M 180 160 C 180 170 190 180 200 170" stroke="#FF0000" fill="none"></path><path d="M 200 170 C 210 160 210 170 200 190" stroke="#FF0000" fill="none"></path><path d="M 200 190 C 190 210 210 240 200 250" stroke="#FF0000" fill="none"></path><path d="M 200 150 C 190 160 190 220 160 230" stroke="#FF0000" fill="none"></path><path d="M 160 230 C 180 200 190 240 210 210" stroke="#FF0000" fill="none"></path><path d="M 210 210 C 230 180 250 200 250 200" stroke="#FF0000" fill="none"></path></g></svg>