<?xml version="1.0" encoding="UTF-8"?>
<svg xmlns="http://www.w3.org/2000/svg" viewBox="0 0 201 201">
  <defs>
    <style>
      .cls-1 {
        fill: none;
        stroke: #231f20;
        stroke-miterlimit: 1;
      }
    </style>
  </defs>
  <g id="Layer_1" data-name="Layer 1">
    <rect class="cls-1" x="0" y="0" width="2" height="2"/>
  </g>
  <g id="Layer_2" data-name="Layer 2">
    <path class="cls-1" d="m0,1c11-4,27-8,47-6,22,3,31,12,46,1,11-2,25-9,41-39"/>
    <path class="cls-1" d="m2,102c-2,0-35,8-55-14-7-8-1-17-11-22"/>
    <path class="cls-1" d="m99,0c-46,59-52,116-31,135,18,16,54,3,65,0"/>
    <path class="cls-1" d="m102,2c-1-9-11-18-12-21-1-18,16-38,44-45"/>
  </g>
</svg>